# Blender 4.3.2
# www.blender.org
mtllib sceneWalls.mtl
o Plane
v 6.424709 -0.056657 1.858677
v -5.105322 -0.056657 5.184093
v 6.424709 5.943343 1.858677
v -5.105322 5.943343 5.184092
vn -0.2771 -0.0000 -0.9608
vt 1.000000 0.000000
vt 0.000000 1.000000
vt 0.000000 0.000000
vt 1.000000 1.000000
s 0
f 2/1/1 3/2/1 1/3/1
f 2/1/1 4/4/1 3/2/1
o Plane.001
v -7.036482 0.034848 -1.040177
v 4.484110 0.034848 -4.398144
v -7.036482 6.034848 -1.040177
v 4.484110 6.034848 -4.398144
vn 0.2798 -0.0000 0.9600
vt 1.000000 0.000000
vt 0.000000 1.000000
vt 0.000000 0.000000
vt 1.000000 1.000000
s 0
f 6/5/2 7/6/2 5/7/2
f 6/5/2 8/8/2 7/6/2
o Plane.002
v -3.311976 -0.022970 5.649656
v -5.284119 -0.022970 -2.103450
v -3.311976 5.977030 5.649656
v -5.284119 5.977030 -2.103450
vn 0.9691 -0.0000 -0.2465
vt 1.000000 0.000000
vt 0.000000 1.000000
vt 0.000000 0.000000
vt 1.000000 1.000000
s 0
f 10/9/3 11/10/3 9/11/3
f 10/9/3 12/12/3 11/10/3
o Plane.003
v -12.522211 5.620824 8.727465
v -15.049587 5.620824 1.137184
v 6.453492 5.620817 2.409023
v 3.926116 5.620817 -5.181258
vn -0.0000 -1.0000 -0.0000
vt 1.000000 0.000000
vt 0.000000 1.000000
vt 0.000000 0.000000
vt 1.000000 1.000000
s 0
f 14/13/4 15/14/4 13/15/4
f 14/13/4 16/16/4 15/14/4
o Plane.004
v 6.220475 -0.022970 2.597939
v 4.248333 -0.022970 -5.155168
v 6.220476 5.977030 2.597939
v 4.248333 5.977030 -5.155168
vn 0.9691 -0.0000 -0.2465
vt 1.000000 0.000000
vt 0.000000 1.000000
vt 0.000000 0.000000
vt 1.000000 1.000000
s 0
f 18/17/5 19/18/5 17/19/5
f 18/17/5 20/20/5 19/18/5
